# WaveFront *.obj file (generated by Autodesk ATF)

mtllib 3912d02d-f0fe-4b40-a5a5-1941834cf398.mtl

g Outline

v 519.000000 0.000000 248.000000
v 43.000000 0.000000 248.000000
v 43.000000 20.000000 248.000000
v 519.000000 20.000000 248.000000
v 519.000000 0.000000 43.000000
v 519.000000 20.000000 43.000000
v 43.000000 0.000000 43.000000
v 43.000000 20.000000 43.000000
v 0.000000 0.000000 0.000000
v 0.000000 0.000000 291.000000
v 0.000000 20.000000 291.000000
v 0.000000 20.000000 0.000000
v 562.000000 0.000000 0.000000
v 562.000000 20.000000 0.000000
v 562.000000 0.000000 291.000000
v 562.000000 20.000000 291.000000
vt 0.000000 0.000000 0.000000
vt 47.600000 0.000000 0.000000
vt 0.000000 2.000000 0.000000
vt 47.600000 2.000000 0.000000
vt 0.000000 0.000000 0.000000
vt 20.500000 0.000000 0.000000
vt 0.000000 2.000000 0.000000
vt 20.500000 2.000000 0.000000
vt 0.000000 0.000000 0.000000
vt 47.600000 0.000000 0.000000
vt 0.000000 2.000000 0.000000
vt 47.600000 2.000000 0.000000
vt 0.000000 0.000000 0.000000
vt 20.500000 0.000000 0.000000
vt 0.000000 2.000000 0.000000
vt 20.500000 2.000000 0.000000
vt 0.000000 0.000000 0.000000
vt 29.100000 0.000000 0.000000
vt 0.000000 2.000000 0.000000
vt 29.100000 2.000000 0.000000
vt -0.000000 0.000000 0.000000
vt 56.200000 0.000000 0.000000
vt -0.000000 2.000000 0.000000
vt 56.200000 2.000000 0.000000
vt -0.000000 0.000000 0.000000
vt 29.100000 0.000000 0.000000
vt -0.000000 2.000000 0.000000
vt 29.100000 2.000000 0.000000
vt 0.000000 0.000000 0.000000
vt 56.200000 0.000000 0.000000
vt 0.000000 2.000000 0.000000
vt 56.200000 2.000000 0.000000
vt 10.250000 23.800000 0.000000
vt 10.250000 -23.800000 0.000000
vt 14.550000 -28.100000 0.000000
vt -10.250000 -23.800000 0.000000
vt -14.550000 -28.100000 0.000000
vt -10.250000 23.800000 0.000000
vt -14.550000 28.100000 0.000000
vt 14.550000 28.100000 0.000000
vt 23.800000 -10.250000 0.000000
vt 28.100000 -14.550000 0.000000
vt 23.800000 10.250000 0.000000
vt 28.100000 14.550000 0.000000
vt -28.100000 14.550000 0.000000
vt -23.800000 -10.250000 0.000000
vt -28.100000 -14.550000 0.000000
vt -23.800000 10.250000 0.000000
vn 0.000000 0.000000 -0.100000
vn 0.000000 0.000000 -0.100000
vn 0.000000 0.000000 -0.100000
vn 0.000000 0.000000 -0.100000
vn -0.100000 0.000000 0.000000
vn -0.100000 0.000000 0.000000
vn -0.100000 0.000000 0.000000
vn -0.100000 0.000000 0.000000
vn 0.000000 0.000000 0.100000
vn 0.000000 0.000000 0.100000
vn 0.000000 0.000000 0.100000
vn 0.000000 0.000000 0.100000
vn 0.100000 -0.000000 0.000000
vn 0.100000 -0.000000 0.000000
vn 0.100000 -0.000000 0.000000
vn 0.100000 -0.000000 0.000000
vn -0.100000 0.000000 0.000000
vn -0.100000 0.000000 0.000000
vn -0.100000 0.000000 0.000000
vn -0.100000 0.000000 0.000000
vn 0.000000 0.000000 -0.100000
vn 0.000000 0.000000 -0.100000
vn 0.000000 0.000000 -0.100000
vn 0.000000 0.000000 -0.100000
vn 0.100000 0.000000 0.000000
vn 0.100000 0.000000 0.000000
vn 0.100000 0.000000 0.000000
vn 0.100000 0.000000 0.000000
vn 0.000000 -0.000000 0.100000
vn 0.000000 -0.000000 0.100000
vn 0.000000 -0.000000 0.100000
vn 0.000000 -0.000000 0.100000
vn 0.000000 0.100000 0.000000
vn 0.000000 0.100000 0.000000
vn 0.000000 0.100000 0.000000
vn 0.000000 0.100000 0.000000
vn 0.000000 0.100000 0.000000
vn 0.000000 0.100000 0.000000
vn 0.000000 0.100000 0.000000
vn 0.000000 0.100000 0.000000
vn 0.000000 -0.100000 0.000000
vn 0.000000 -0.100000 0.000000
vn 0.000000 -0.100000 0.000000
vn 0.000000 -0.100000 0.000000
vn 0.000000 -0.100000 0.000000
vn 0.000000 -0.100000 0.000000
vn 0.000000 -0.100000 0.000000
vn 0.000000 -0.100000 0.000000
usemtl Steel_-_Satin
f 1/1/1 2/2/2 4/3/3
f 4/3/3 2/2/2 3/4/4
f 5/5/5 1/6/6 6/7/7
f 6/7/7 1/6/6 4/8/8
f 7/9/9 5/10/10 8/11/11
f 8/11/11 5/10/10 6/12/12
f 2/13/13 7/14/14 3/15/15
f 3/15/15 7/14/14 8/16/16
f 9/17/17 10/18/18 12/19/19
f 12/19/19 10/18/18 11/20/20
f 13/21/21 9/22/22 14/23/23
f 14/23/23 9/22/22 12/24/24
f 15/25/25 13/26/26 16/27/27
f 16/27/27 13/26/26 14/28/28
f 10/29/29 15/30/30 11/31/31
f 11/31/31 15/30/30 16/32/32
f 4/33/33 3/34/34 11/35/35
f 11/35/35 3/34/34 8/36/36
f 11/35/35 8/36/36 12/37/37
f 12/37/37 8/36/36 6/38/38
f 12/37/37 6/38/38 14/39/39
f 14/39/39 6/38/38 4/33/33
f 14/39/39 4/33/33 16/40/40
f 16/40/40 4/33/33 11/35/35
f 2/41/41 10/42/42 7/43/43
f 7/43/43 10/42/42 9/44/44
f 7/43/43 9/44/44 13/45/45
f 2/41/41 1/46/46 10/42/42
f 10/42/42 1/46/46 15/47/47
f 15/47/47 1/46/46 5/48/48
f 15/47/47 5/48/48 13/45/45
f 13/45/45 5/48/48 7/43/43

g B

v 458.000000 0.000000 181.000000
v 403.000000 0.000000 181.000000
v 403.000000 20.000000 181.000000
v 458.000000 20.000000 181.000000
v 458.000000 0.000000 163.000000
v 458.000000 20.000000 163.000000
v 403.000000 0.000000 163.000000
v 403.000000 20.000000 163.000000
v 458.000000 0.000000 111.000000
v 458.000000 0.000000 129.000000
v 458.000000 20.000000 129.000000
v 458.000000 20.000000 111.000000
v 403.000000 0.000000 111.000000
v 403.000000 20.000000 111.000000
v 403.000000 0.000000 129.000000
v 403.000000 20.000000 129.000000
v 369.000000 0.000000 77.000000
v 369.000000 0.000000 215.000000
v 369.000000 20.000000 215.000000
v 369.000000 20.000000 77.000000
v 492.000000 0.000000 77.000000
v 492.000000 20.000000 77.000000
v 492.000000 0.000000 215.000000
v 492.000000 20.000000 215.000000
vt 0.000000 0.000000 0.000000
vt 5.500000 0.000000 0.000000
vt 0.000000 2.000000 0.000000
vt 5.500000 2.000000 0.000000
vt 0.000000 0.000000 0.000000
vt 1.800000 0.000000 0.000000
vt 0.000000 2.000000 0.000000
vt 1.800000 2.000000 0.000000
vt 0.000000 0.000000 0.000000
vt 5.500000 0.000000 0.000000
vt 0.000000 2.000000 0.000000
vt 5.500000 2.000000 0.000000
vt 0.000000 0.000000 0.000000
vt 1.800000 0.000000 0.000000
vt 0.000000 2.000000 0.000000
vt 1.800000 2.000000 0.000000
vt 0.000000 0.000000 0.000000
vt 1.800000 0.000000 0.000000
vt 0.000000 2.000000 0.000000
vt 1.800000 2.000000 0.000000
vt 0.000000 0.000000 0.000000
vt 5.500000 0.000000 0.000000
vt 0.000000 2.000000 0.000000
vt 5.500000 2.000000 0.000000
vt 0.000000 0.000000 0.000000
vt 1.800000 0.000000 0.000000
vt 0.000000 2.000000 0.000000
vt 1.800000 2.000000 0.000000
vt 0.000000 0.000000 0.000000
vt 5.500000 0.000000 0.000000
vt 0.000000 2.000000 0.000000
vt 5.500000 2.000000 0.000000
vt 0.000000 0.000000 0.000000
vt 13.800000 0.000000 0.000000
vt 0.000000 2.000000 0.000000
vt 13.800000 2.000000 0.000000
vt 0.000000 0.000000 0.000000
vt 12.300000 0.000000 0.000000
vt 0.000000 2.000000 0.000000
vt 12.300000 2.000000 0.000000
vt 0.000000 0.000000 0.000000
vt 13.800000 0.000000 0.000000
vt 0.000000 2.000000 0.000000
vt 13.800000 2.000000 0.000000
vt 0.000000 0.000000 0.000000
vt 12.300000 0.000000 0.000000
vt 0.000000 2.000000 0.000000
vt 12.300000 2.000000 0.000000
vt -1.700000 -2.750000 0.000000
vt 1.700000 -2.750000 0.000000
vt -1.700000 2.750000 0.000000
vt 1.700000 2.750000 0.000000
vt -6.900000 6.150000 0.000000
vt 6.900000 6.150000 0.000000
vt 3.500000 2.750000 0.000000
vt 6.900000 -6.150000 0.000000
vt 3.500000 -2.750000 0.000000
vt -3.500000 -2.750000 0.000000
vt -6.900000 -6.150000 0.000000
vt -3.500000 2.750000 0.000000
vt -2.750000 1.700000 0.000000
vt 2.750000 -1.700000 0.000000
vt 2.750000 1.700000 0.000000
vt 6.150000 -6.900000 0.000000
vt 6.150000 6.900000 0.000000
vt -2.750000 3.500000 0.000000
vt -6.150000 6.900000 0.000000
vt -6.150000 -6.900000 0.000000
vt -2.750000 -1.700000 0.000000
vt -2.750000 -3.500000 0.000000
vt 2.750000 -3.500000 0.000000
vt 2.750000 3.500000 0.000000
vn -0.000000 0.000000 -0.100000
vn -0.000000 0.000000 -0.100000
vn -0.000000 0.000000 -0.100000
vn -0.000000 0.000000 -0.100000
vn -0.100000 0.000000 0.000000
vn -0.100000 0.000000 0.000000
vn -0.100000 0.000000 0.000000
vn -0.100000 0.000000 0.000000
vn 0.000000 0.000000 0.100000
vn 0.000000 0.000000 0.100000
vn 0.000000 0.000000 0.100000
vn 0.000000 0.000000 0.100000
vn 0.100000 -0.000000 0.000000
vn 0.100000 -0.000000 0.000000
vn 0.100000 -0.000000 0.000000
vn 0.100000 -0.000000 0.000000
vn -0.100000 0.000000 0.000000
vn -0.100000 0.000000 0.000000
vn -0.100000 0.000000 0.000000
vn -0.100000 0.000000 0.000000
vn 0.000000 0.000000 0.100000
vn 0.000000 0.000000 0.100000
vn 0.000000 0.000000 0.100000
vn 0.000000 0.000000 0.100000
vn 0.100000 -0.000000 0.000000
vn 0.100000 -0.000000 0.000000
vn 0.100000 -0.000000 0.000000
vn 0.100000 -0.000000 0.000000
vn 0.000000 0.000000 -0.100000
vn 0.000000 0.000000 -0.100000
vn 0.000000 0.000000 -0.100000
vn 0.000000 0.000000 -0.100000
vn -0.100000 0.000000 0.000000
vn -0.100000 0.000000 0.000000
vn -0.100000 0.000000 0.000000
vn -0.100000 0.000000 0.000000
vn 0.000000 0.000000 -0.100000
vn 0.000000 0.000000 -0.100000
vn 0.000000 0.000000 -0.100000
vn 0.000000 0.000000 -0.100000
vn 0.100000 -0.000000 0.000000
vn 0.100000 -0.000000 0.000000
vn 0.100000 -0.000000 0.000000
vn 0.100000 -0.000000 0.000000
vn 0.000000 0.000000 0.100000
vn 0.000000 0.000000 0.100000
vn 0.000000 0.000000 0.100000
vn 0.000000 0.000000 0.100000
vn 0.000000 0.100000 0.000000
vn 0.000000 0.100000 0.000000
vn 0.000000 0.100000 0.000000
vn 0.000000 0.100000 0.000000
vn 0.000000 0.100000 0.000000
vn 0.000000 0.100000 0.000000
vn 0.000000 0.100000 0.000000
vn 0.000000 0.100000 0.000000
vn 0.000000 0.100000 0.000000
vn 0.000000 0.100000 0.000000
vn 0.000000 0.100000 0.000000
vn 0.000000 0.100000 0.000000
vn 0.000000 -0.100000 0.000000
vn 0.000000 -0.100000 0.000000
vn 0.000000 -0.100000 0.000000
vn 0.000000 -0.100000 0.000000
vn 0.000000 -0.100000 0.000000
vn 0.000000 -0.100000 0.000000
vn 0.000000 -0.100000 0.000000
vn 0.000000 -0.100000 0.000000
vn 0.000000 -0.100000 0.000000
vn 0.000000 -0.100000 0.000000
vn 0.000000 -0.100000 0.000000
vn 0.000000 -0.100000 0.000000
f 17/49/49 18/50/50 20/51/51
f 20/51/51 18/50/50 19/52/52
f 21/53/53 17/54/54 22/55/55
f 22/55/55 17/54/54 20/56/56
f 23/57/57 21/58/58 24/59/59
f 24/59/59 21/58/58 22/60/60
f 18/61/61 23/62/62 19/63/63
f 19/63/63 23/62/62 24/64/64
f 25/65/65 26/66/66 28/67/67
f 28/67/67 26/66/66 27/68/68
f 29/69/69 25/70/70 30/71/71
f 30/71/71 25/70/70 28/72/72
f 31/73/73 29/74/74 32/75/75
f 32/75/75 29/74/74 30/76/76
f 26/77/77 31/78/78 27/79/79
f 27/79/79 31/78/78 32/80/80
f 33/81/81 34/82/82 36/83/83
f 36/83/83 34/82/82 35/84/84
f 37/85/85 33/86/86 38/87/87
f 38/87/87 33/86/86 36/88/88
f 39/89/89 37/90/90 40/91/91
f 40/91/91 37/90/90 38/92/92
f 34/93/93 39/94/94 35/95/95
f 35/95/95 39/94/94 40/96/96
f 32/97/97 24/98/98 27/99/99
f 27/99/99 24/98/98 22/100/100
f 27/99/99 22/100/100 38/101/101
f 38/101/101 22/100/100 40/102/102
f 40/102/102 22/100/100 20/103/103
f 40/102/102 20/103/103 35/104/104
f 35/104/104 20/103/103 19/105/105
f 35/104/104 19/105/105 24/98/98
f 30/106/106 36/107/107 32/97/97
f 32/97/97 36/107/107 35/104/104
f 32/97/97 35/104/104 24/98/98
f 30/106/106 28/108/108 36/107/107
f 36/107/107 28/108/108 38/101/101
f 38/101/101 28/108/108 27/99/99
f 26/109/109 23/110/110 31/111/111
f 31/111/111 23/110/110 34/112/112
f 31/111/111 34/112/112 33/113/113
f 25/114/114 37/115/115 26/109/109
f 26/109/109 37/115/115 39/116/116
f 26/109/109 39/116/116 21/117/117
f 21/117/117 39/116/116 17/118/118
f 17/118/118 39/116/116 34/112/112
f 17/118/118 34/112/112 18/119/119
f 18/119/119 34/112/112 23/110/110
f 25/114/114 29/120/120 37/115/115
f 37/115/115 29/120/120 33/113/113
f 33/113/113 29/120/120 31/111/111
f 21/117/117 23/110/110 26/109/109

g A

v 171.000000 0.000000 179.000000
v 113.000000 0.000000 179.000000
v 113.000000 20.000000 179.000000
v 171.000000 20.000000 179.000000
v 171.000000 0.000000 215.000000
v 171.000000 20.000000 215.000000
v 77.000000 0.000000 215.000000
v 77.000000 20.000000 215.000000
v 77.000000 0.000000 77.000000
v 77.000000 20.000000 77.000000
v 113.000000 0.000000 77.000000
v 113.000000 20.000000 77.000000
vt -0.000000 0.000000 0.000000
vt 5.800000 0.000000 0.000000
vt -0.000000 2.000000 0.000000
vt 5.800000 2.000000 0.000000
vt -0.000000 0.000000 0.000000
vt 3.600000 0.000000 0.000000
vt -0.000000 2.000000 0.000000
vt 3.600000 2.000000 0.000000
vt 0.000000 0.000000 0.000000
vt 9.400000 0.000000 0.000000
vt 0.000000 2.000000 0.000000
vt 9.400000 2.000000 0.000000
vt 0.000000 0.000000 0.000000
vt 13.800000 0.000000 0.000000
vt 0.000000 2.000000 0.000000
vt 13.800000 2.000000 0.000000
vt -0.000000 0.000000 0.000000
vt 3.600000 0.000000 0.000000
vt -0.000000 2.000000 0.000000
vt 3.600000 2.000000 0.000000
vt -0.000000 0.000000 0.000000
vt 10.200000 0.000000 0.000000
vt -0.000000 2.000000 0.000000
vt 10.200000 2.000000 0.000000
vt -6.900000 -1.100000 0.000000
vt -6.900000 -4.700000 0.000000
vt 3.300000 -1.100000 0.000000
vt 6.900000 -4.700000 0.000000
vt 6.900000 4.700000 0.000000
vt 3.300000 4.700000 0.000000
vt 1.100000 6.900000 0.000000
vt 1.100000 -3.300000 0.000000
vt 4.700000 6.900000 0.000000
vt 4.700000 -6.900000 0.000000
vt -4.700000 -6.900000 0.000000
vt -4.700000 -3.300000 0.000000
vn 0.000000 0.000000 -0.100000
vn 0.000000 0.000000 -0.100000
vn 0.000000 0.000000 -0.100000
vn 0.000000 0.000000 -0.100000
vn 0.100000 0.000000 0.000000
vn 0.100000 0.000000 0.000000
vn 0.100000 0.000000 0.000000
vn 0.100000 0.000000 0.000000
vn 0.000000 -0.000000 0.100000
vn 0.000000 -0.000000 0.100000
vn 0.000000 -0.000000 0.100000
vn 0.000000 -0.000000 0.100000
vn -0.100000 0.000000 0.000000
vn -0.100000 0.000000 0.000000
vn -0.100000 0.000000 0.000000
vn -0.100000 0.000000 0.000000
vn 0.000000 0.000000 -0.100000
vn 0.000000 0.000000 -0.100000
vn 0.000000 0.000000 -0.100000
vn 0.000000 0.000000 -0.100000
vn 0.100000 0.000000 0.000000
vn 0.100000 0.000000 0.000000
vn 0.100000 0.000000 0.000000
vn 0.100000 0.000000 0.000000
vn 0.000000 0.100000 0.000000
vn 0.000000 0.100000 0.000000
vn 0.000000 0.100000 0.000000
vn 0.000000 0.100000 0.000000
vn 0.000000 0.100000 0.000000
vn 0.000000 0.100000 0.000000
vn 0.000000 -0.100000 0.000000
vn 0.000000 -0.100000 0.000000
vn 0.000000 -0.100000 0.000000
vn 0.000000 -0.100000 0.000000
vn 0.000000 -0.100000 0.000000
vn 0.000000 -0.100000 0.000000
f 41/121/121 42/122/122 44/123/123
f 44/123/123 42/122/122 43/124/124
f 45/125/125 41/126/126 46/127/127
f 46/127/127 41/126/126 44/128/128
f 47/129/129 45/130/130 48/131/131
f 48/131/131 45/130/130 46/132/132
f 49/133/133 47/134/134 50/135/135
f 50/135/135 47/134/134 48/136/136
f 51/137/137 49/138/138 52/139/139
f 52/139/139 49/138/138 50/140/140
f 42/141/141 51/142/142 43/143/143
f 43/143/143 51/142/142 52/144/144
f 52/145/145 50/146/146 43/147/147
f 43/147/147 50/146/146 48/148/148
f 43/147/147 48/148/148 46/149/149
f 46/149/149 44/150/150 43/147/147
f 51/151/151 42/152/152 49/153/153
f 49/153/153 42/152/152 47/154/154
f 47/154/154 42/152/152 45/155/155
f 45/155/155 42/152/152 41/156/156

g L

v 301.000000 0.000000 128.000000
v 239.000000 0.000000 128.000000
v 239.000000 20.000000 128.000000
v 301.000000 20.000000 128.000000
v 301.000000 0.000000 111.000000
v 301.000000 20.000000 111.000000
v 239.000000 0.000000 111.000000
v 239.000000 20.000000 111.000000
v 301.000000 0.000000 164.000000
v 301.000000 0.000000 215.000000
v 301.000000 20.000000 215.000000
v 301.000000 20.000000 164.000000
v 239.000000 0.000000 164.000000
v 239.000000 20.000000 164.000000
v 239.000000 0.000000 215.000000
v 239.000000 20.000000 215.000000
v 205.000000 0.000000 215.000000
v 205.000000 20.000000 215.000000
v 205.000000 0.000000 77.000000
v 205.000000 20.000000 77.000000
v 335.000000 0.000000 77.000000
v 335.000000 20.000000 77.000000
v 335.000000 0.000000 215.000000
v 335.000000 20.000000 215.000000
vt 0.000000 0.000000 0.000000
vt 6.200000 0.000000 0.000000
vt 0.000000 2.000000 0.000000
vt 6.200000 2.000000 0.000000
vt 0.000000 0.000000 0.000000
vt 1.700000 0.000000 0.000000
vt 0.000000 2.000000 0.000000
vt 1.700000 2.000000 0.000000
vt 0.000000 0.000000 0.000000
vt 6.200000 0.000000 0.000000
vt 0.000000 2.000000 0.000000
vt 6.200000 2.000000 0.000000
vt 0.000000 0.000000 0.000000
vt 1.700000 0.000000 0.000000
vt 0.000000 2.000000 0.000000
vt 1.700000 2.000000 0.000000
vt 0.000000 0.000000 0.000000
vt 5.100000 0.000000 0.000000
vt 0.000000 2.000000 0.000000
vt 5.100000 2.000000 0.000000
vt 0.000000 0.000000 0.000000
vt 6.200000 0.000000 0.000000
vt 0.000000 2.000000 0.000000
vt 6.200000 2.000000 0.000000
vt 0.000000 0.000000 0.000000
vt 5.100000 0.000000 0.000000
vt 0.000000 2.000000 0.000000
vt 5.100000 2.000000 0.000000
vt 0.000000 0.000000 0.000000
vt 3.400000 0.000000 0.000000
vt 0.000000 2.000000 0.000000
vt 3.400000 2.000000 0.000000
vt 0.000000 0.000000 0.000000
vt 13.800000 0.000000 0.000000
vt 0.000000 2.000000 0.000000
vt 13.800000 2.000000 0.000000
vt -0.000000 0.000000 0.000000
vt 13.000000 0.000000 0.000000
vt -0.000000 2.000000 0.000000
vt 13.000000 2.000000 0.000000
vt 0.000000 0.000000 0.000000
vt 13.800000 0.000000 0.000000
vt 0.000000 2.000000 0.000000
vt 13.800000 2.000000 0.000000
vt 0.000000 0.000000 0.000000
vt 3.400000 0.000000 0.000000
vt 0.000000 2.000000 0.000000
vt 3.400000 2.000000 0.000000
vt -3.500000 -3.100000 0.000000
vt -6.900000 -6.500000 0.000000
vt -1.800000 -3.100000 0.000000
vt 6.900000 -6.500000 0.000000
vt 1.800000 -3.100000 0.000000
vt 6.900000 -3.100000 0.000000
vt -3.500000 3.100000 0.000000
vt -6.900000 6.500000 0.000000
vt -1.800000 3.100000 0.000000
vt 1.800000 3.100000 0.000000
vt 6.900000 3.100000 0.000000
vt 6.900000 6.500000 0.000000
vt 3.100000 1.800000 0.000000
vt 6.500000 6.900000 0.000000
vt 3.100000 3.500000 0.000000
vt -6.500000 6.900000 0.000000
vt -3.100000 3.500000 0.000000
vt -3.100000 1.800000 0.000000
vt -6.500000 -6.900000 0.000000
vt -3.100000 -1.800000 0.000000
vt -3.100000 -6.900000 0.000000
vt 3.100000 -1.800000 0.000000
vt 6.500000 -6.900000 0.000000
vt 3.100000 -6.900000 0.000000
vn -0.000000 0.000000 -0.100000
vn -0.000000 0.000000 -0.100000
vn -0.000000 0.000000 -0.100000
vn -0.000000 0.000000 -0.100000
vn -0.100000 0.000000 0.000000
vn -0.100000 0.000000 0.000000
vn -0.100000 0.000000 0.000000
vn -0.100000 0.000000 0.000000
vn 0.000000 0.000000 0.100000
vn 0.000000 0.000000 0.100000
vn 0.000000 0.000000 0.100000
vn 0.000000 0.000000 0.100000
vn 0.100000 -0.000000 0.000000
vn 0.100000 -0.000000 0.000000
vn 0.100000 -0.000000 0.000000
vn 0.100000 -0.000000 0.000000
vn -0.100000 0.000000 0.000000
vn -0.100000 0.000000 0.000000
vn -0.100000 0.000000 0.000000
vn -0.100000 0.000000 0.000000
vn 0.000000 -0.000000 0.100000
vn 0.000000 -0.000000 0.100000
vn 0.000000 -0.000000 0.100000
vn 0.000000 -0.000000 0.100000
vn 0.100000 -0.000000 0.000000
vn 0.100000 -0.000000 0.000000
vn 0.100000 -0.000000 0.000000
vn 0.100000 -0.000000 0.000000
vn 0.000000 0.000000 0.100000
vn 0.000000 0.000000 0.100000
vn 0.000000 0.000000 0.100000
vn 0.000000 0.000000 0.100000
vn -0.100000 0.000000 0.000000
vn -0.100000 0.000000 0.000000
vn -0.100000 0.000000 0.000000
vn -0.100000 0.000000 0.000000
vn 0.000000 0.000000 -0.100000
vn 0.000000 0.000000 -0.100000
vn 0.000000 0.000000 -0.100000
vn 0.000000 0.000000 -0.100000
vn 0.100000 -0.000000 0.000000
vn 0.100000 -0.000000 0.000000
vn 0.100000 -0.000000 0.000000
vn 0.100000 -0.000000 0.000000
vn 0.000000 -0.000000 0.100000
vn 0.000000 -0.000000 0.100000
vn 0.000000 -0.000000 0.100000
vn 0.000000 -0.000000 0.100000
vn 0.000000 0.100000 0.000000
vn 0.000000 0.100000 0.000000
vn 0.000000 0.100000 0.000000
vn 0.000000 0.100000 0.000000
vn 0.000000 0.100000 0.000000
vn 0.000000 0.100000 0.000000
vn 0.000000 0.100000 0.000000
vn 0.000000 0.100000 0.000000
vn 0.000000 0.100000 0.000000
vn 0.000000 0.100000 0.000000
vn 0.000000 0.100000 0.000000
vn 0.000000 0.100000 0.000000
vn 0.000000 -0.100000 0.000000
vn 0.000000 -0.100000 0.000000
vn 0.000000 -0.100000 0.000000
vn 0.000000 -0.100000 0.000000
vn 0.000000 -0.100000 0.000000
vn 0.000000 -0.100000 0.000000
vn 0.000000 -0.100000 0.000000
vn 0.000000 -0.100000 0.000000
vn 0.000000 -0.100000 0.000000
vn 0.000000 -0.100000 0.000000
vn 0.000000 -0.100000 0.000000
vn 0.000000 -0.100000 0.000000
f 53/157/157 54/158/158 56/159/159
f 56/159/159 54/158/158 55/160/160
f 57/161/161 53/162/162 58/163/163
f 58/163/163 53/162/162 56/164/164
f 59/165/165 57/166/166 60/167/167
f 60/167/167 57/166/166 58/168/168
f 54/169/169 59/170/170 55/171/171
f 55/171/171 59/170/170 60/172/172
f 61/173/173 62/174/174 64/175/175
f 64/175/175 62/174/174 63/176/176
f 65/177/177 61/178/178 66/179/179
f 66/179/179 61/178/178 64/180/180
f 67/181/181 65/182/182 68/183/183
f 68/183/183 65/182/182 66/184/184
f 69/185/185 67/186/186 70/187/187
f 70/187/187 67/186/186 68/188/188
f 71/189/189 69/190/190 72/191/191
f 72/191/191 69/190/190 70/192/192
f 73/193/193 71/194/194 74/195/195
f 74/195/195 71/194/194 72/196/196
f 75/197/197 73/198/198 76/199/199
f 76/199/199 73/198/198 74/200/200
f 62/201/201 75/202/202 63/203/203
f 63/203/203 75/202/202 76/204/204
f 60/205/205 72/206/206 55/207/207
f 55/207/207 72/206/206 70/208/208
f 55/207/207 70/208/208 66/209/209
f 66/209/209 70/208/208 68/210/210
f 60/205/205 58/211/211 72/206/206
f 72/206/206 58/211/211 74/212/212
f 74/212/212 58/211/211 56/213/213
f 74/212/212 56/213/213 64/214/214
f 64/214/214 56/213/213 66/209/209
f 66/209/209 56/213/213 55/207/207
f 63/215/215 76/216/216 64/214/214
f 64/214/214 76/216/216 74/212/212
f 54/217/217 71/218/218 59/219/219
f 59/219/219 71/218/218 73/220/220
f 59/219/219 73/220/220 57/221/221
f 57/221/221 73/220/220 53/222/222
f 53/222/222 73/220/220 75/223/223
f 53/222/222 75/223/223 61/224/224
f 61/224/224 75/223/223 62/225/225
f 53/222/222 65/226/226 54/217/217
f 54/217/217 65/226/226 69/227/227
f 54/217/217 69/227/227 71/218/218
f 61/224/224 65/226/226 53/222/222
f 65/226/226 67/228/228 69/227/227

# 76 vertices
# 228 texture params
# 228 normals
# 152 facets

# 4 groups
